<svg width="70" height="77" viewBox="0 0 70 77" fill="none" xmlns="http://www.w3.org/2000/svg">
<path d="M0 10.353C0 4.83018 4.47715 0.353027 10 0.353027H60C65.5229 0.353027 70 4.83018 70 10.353V66.353C70 71.8759 65.5229 76.353 60 76.353H10C4.47715 76.353 0 71.8759 0 66.353V10.353Z" fill="#FFDCD1"/>
<path d="M37.2133 28.0862C37.0866 27.4653 36.5404 27.0195 35.9067 27.0195H26.3333C25.597 27.0195 25 27.6165 25 28.3529V48.3529C25 49.0892 25.597 49.6862 26.3333 49.6862C27.0697 49.6862 27.6667 49.0892 27.6667 48.3529V40.3529H35.1333L35.4533 41.9529C35.5743 42.5772 36.1241 43.026 36.76 43.0195H43.6667C44.403 43.0195 45 42.4226 45 41.6862V31.0195C45 30.2832 44.403 29.6862 43.6667 29.6862H37.5333L37.2133 28.0862Z" fill="#E74040"/>
</svg>
