<svg width="131" height="23" viewBox="0 0 131 23" fill="none" xmlns="http://www.w3.org/2000/svg">
<g clip-path="url(#clip0_2_377)">
<path d="M20.5969 8.41964C20.5392 8.24983 20.4331 8.10061 20.2916 7.99043C20.1501 7.88024 19.9795 7.81389 19.8007 7.79959L14.5716 7.38408L12.3087 2.37506C12.2367 2.21373 12.1195 2.07671 11.9712 1.98052C11.823 1.88434 11.6501 1.8331 11.4734 1.83301C11.2968 1.83291 11.1238 1.88395 10.9755 1.97998C10.8272 2.076 10.7098 2.2129 10.6375 2.37415L8.37473 7.38408L3.14558 7.79959C2.96989 7.8135 2.80193 7.87774 2.66179 7.98462C2.52165 8.0915 2.41527 8.23648 2.35537 8.40224C2.29548 8.56799 2.2846 8.74749 2.32405 8.91926C2.3635 9.09103 2.4516 9.2478 2.57781 9.37081L6.44212 13.1379L5.07544 19.0559C5.03394 19.235 5.04724 19.4225 5.11361 19.594C5.17999 19.7655 5.29637 19.913 5.44765 20.0175C5.59894 20.1221 5.77815 20.1787 5.96202 20.1801C6.1459 20.1815 6.32594 20.1276 6.47881 20.0254L11.4731 16.6958L16.4675 20.0254C16.6237 20.1291 16.808 20.1825 16.9955 20.1784C17.183 20.1743 17.3647 20.1129 17.5162 20.0024C17.6678 19.8919 17.7819 19.7377 17.8431 19.5604C17.9044 19.3832 17.9099 19.1914 17.8589 19.0109L16.1813 13.1406L20.3419 9.39649C20.6143 9.15067 20.7143 8.76727 20.5969 8.41964Z" fill="#F3CD03"/>
<path d="M47.6118 8.41964C47.5541 8.24983 47.448 8.10061 47.3065 7.99043C47.165 7.88024 46.9944 7.81389 46.8156 7.79959L41.5865 7.38408L39.3236 2.37506C39.2516 2.21373 39.1344 2.07671 38.9861 1.98052C38.8379 1.88434 38.665 1.8331 38.4883 1.83301C38.3116 1.83291 38.1387 1.88395 37.9904 1.97998C37.842 2.076 37.7247 2.2129 37.6524 2.37415L35.3896 7.38408L30.1605 7.79959C29.9848 7.8135 29.8168 7.87774 29.6767 7.98462C29.5365 8.0915 29.4302 8.23648 29.3703 8.40224C29.3104 8.56799 29.2995 8.74749 29.3389 8.91926C29.3784 9.09103 29.4665 9.2478 29.5927 9.37081L33.457 13.1379L32.0903 19.0559C32.0488 19.235 32.0621 19.4225 32.1285 19.594C32.1949 19.7655 32.3113 19.913 32.4625 20.0175C32.6138 20.1221 32.793 20.1787 32.9769 20.1801C33.1608 20.1815 33.3408 20.1276 33.4937 20.0254L38.488 16.6958L43.4824 20.0254C43.6386 20.1291 43.8229 20.1825 44.0104 20.1784C44.1979 20.1743 44.3796 20.1129 44.5311 20.0024C44.6827 19.8919 44.7968 19.7377 44.858 19.5604C44.9193 19.3832 44.9248 19.1914 44.8738 19.0109L43.1962 13.1406L47.3568 9.39649C47.6292 9.15067 47.7292 8.76727 47.6118 8.41964Z" fill="#F3CD03"/>
<path d="M74.6228 8.41964C74.5651 8.24983 74.459 8.10061 74.3175 7.99043C74.176 7.88024 74.0054 7.81389 73.8266 7.79959L68.5974 7.38408L66.3346 2.37506C66.2626 2.21373 66.1453 2.07671 65.9971 1.98052C65.8489 1.88434 65.676 1.8331 65.4993 1.83301C65.3226 1.83291 65.1497 1.88395 65.0014 1.97998C64.853 2.076 64.7357 2.2129 64.6634 2.37415L62.4006 7.38408L57.1715 7.79959C56.9958 7.8135 56.8278 7.87774 56.6877 7.98462C56.5475 8.0915 56.4411 8.23648 56.3813 8.40224C56.3214 8.56799 56.3105 8.74749 56.3499 8.91926C56.3894 9.09103 56.4775 9.2478 56.6037 9.37081L60.468 13.1379L59.1013 19.0559C59.0598 19.235 59.0731 19.4225 59.1395 19.594C59.2059 19.7655 59.3222 19.913 59.4735 20.0175C59.6248 20.1221 59.804 20.1787 59.9879 20.1801C60.1718 20.1815 60.3518 20.1276 60.5047 20.0254L65.499 16.6958L70.4934 20.0254C70.6496 20.1291 70.8339 20.1825 71.0214 20.1784C71.2088 20.1743 71.3906 20.1129 71.5421 20.0024C71.6937 19.8919 71.8077 19.7377 71.869 19.5604C71.9303 19.3832 71.9358 19.1914 71.8848 19.0109L70.2072 13.1406L74.3678 9.39649C74.6402 9.15067 74.7402 8.76727 74.6228 8.41964Z" fill="#F3CD03"/>
<path d="M101.636 8.41964C101.579 8.24983 101.473 8.10061 101.331 7.99043C101.19 7.88024 101.019 7.81389 100.84 7.79959L95.6111 7.38408L93.3483 2.37506C93.2762 2.21373 93.159 2.07671 93.0108 1.98052C92.8626 1.88434 92.6897 1.8331 92.513 1.83301C92.3363 1.83291 92.1634 1.88395 92.015 1.97998C91.8667 2.076 91.7493 2.2129 91.6771 2.37415L89.4143 7.38408L84.1851 7.79959C84.0094 7.8135 83.8415 7.87774 83.7013 7.98462C83.5612 8.0915 83.4548 8.23648 83.3949 8.40224C83.335 8.56799 83.3242 8.74749 83.3636 8.91926C83.4031 9.09103 83.4912 9.2478 83.6174 9.37081L87.4817 13.1379L86.115 19.0559C86.0735 19.235 86.0868 19.4225 86.1532 19.594C86.2195 19.7655 86.3359 19.913 86.4872 20.0175C86.6385 20.1221 86.8177 20.1787 87.0016 20.1801C87.1854 20.1815 87.3655 20.1276 87.5184 20.0254L92.5127 16.6958L97.507 20.0254C97.6633 20.1291 97.8475 20.1825 98.035 20.1784C98.2225 20.1743 98.4043 20.1129 98.5558 20.0024C98.7073 19.8919 98.8214 19.7377 98.8827 19.5604C98.9439 19.3832 98.9495 19.1914 98.8985 19.0109L97.2209 13.1406L101.381 9.39649C101.654 9.15067 101.754 8.76727 101.636 8.41964Z" fill="#F3CD03"/>
<path d="M114.498 13.1374L113.131 19.0554C113.089 19.2346 113.101 19.4224 113.167 19.5943C113.234 19.7662 113.35 19.9141 113.501 20.0188C113.653 20.1235 113.832 20.1801 114.016 20.1812C114.201 20.1823 114.381 20.1278 114.533 20.0249L119.528 16.6954L124.522 20.0249C124.678 20.1287 124.863 20.1821 125.05 20.178C125.238 20.1739 125.419 20.1124 125.571 20.0019C125.722 19.8915 125.837 19.7372 125.898 19.56C125.959 19.3827 125.965 19.191 125.914 19.0105L124.236 13.1402L128.397 9.39603C128.53 9.27605 128.625 9.11963 128.67 8.94614C128.716 8.77264 128.709 8.58967 128.651 8.41986C128.594 8.25004 128.488 8.10083 128.346 7.99067C128.205 7.88051 128.034 7.81423 127.855 7.80004L122.626 7.38362L120.363 2.3746C120.291 2.21331 120.174 2.07635 120.026 1.98025C119.877 1.88415 119.705 1.83301 119.528 1.83301C119.351 1.83301 119.178 1.88415 119.03 1.98025C118.882 2.07635 118.764 2.21331 118.692 2.3746L116.429 7.38362L111.2 7.79913C111.025 7.81305 110.857 7.87729 110.716 7.98416C110.576 8.09104 110.47 8.23602 110.41 8.40178C110.35 8.56753 110.339 8.74703 110.379 8.9188C110.418 9.09057 110.506 9.24734 110.632 9.37035L114.498 13.1374ZM117.115 9.16947C117.278 9.15658 117.436 9.09987 117.57 9.0053C117.704 8.91073 117.81 8.78179 117.878 8.63198L119.528 4.98047L121.178 8.63198C121.245 8.78179 121.352 8.91073 121.486 9.0053C121.62 9.09987 121.777 9.15658 121.941 9.16947L125.584 9.4584L122.584 12.1587C122.324 12.3936 122.22 12.7549 122.315 13.0925L123.465 17.1146L120.038 14.8297C119.887 14.7288 119.71 14.6749 119.529 14.6749C119.348 14.6749 119.171 14.7288 119.021 14.8297L115.44 17.2173L116.403 13.0475C116.438 12.8942 116.433 12.7343 116.389 12.5833C116.345 12.4323 116.262 12.2953 116.15 12.1853L113.363 9.46849L117.115 9.16947Z" fill="#F3CD03"/>
</g>
<defs>
<clipPath id="clip0_2_377">
<rect width="130.068" height="22.0136" fill="white" transform="translate(0.466064)"/>
</clipPath>
</defs>
</svg>
