<svg width="70" height="77" viewBox="0 0 70 77" fill="none" xmlns="http://www.w3.org/2000/svg">
<path d="M0 10.353C0 4.83018 4.47715 0.353027 10 0.353027H60C65.5229 0.353027 70 4.83018 70 10.353V66.353C70 71.8759 65.5229 76.353 60 76.353H10C4.47715 76.353 0 71.8759 0 66.353V10.353Z" fill="#B9EAA8"/>
<path d="M45.6665 49.0199H24.3332C22.8604 49.0199 21.6665 47.8259 21.6665 46.3532V30.3532C21.6665 28.8804 22.8604 27.6865 24.3332 27.6865H45.6665C47.1393 27.6865 48.3332 28.8804 48.3332 30.3532V46.3532C48.3332 47.8259 47.1393 49.0199 45.6665 49.0199ZM24.3332 38.3532V46.3532H45.6665V38.3532H24.3332ZM24.3332 30.3532V33.0199H45.6665V30.3532H24.3332ZM36.3332 43.6865H26.9998V41.0199H36.3332V43.6865Z" fill="#40BB15"/>
</svg>
