<svg width="70" height="77" viewBox="0 0 70 77" fill="none" xmlns="http://www.w3.org/2000/svg">
<path d="M0 10.353C0 4.83018 4.47715 0.353027 10 0.353027H60C65.5229 0.353027 70 4.83018 70 10.353V66.353C70 71.8759 65.5229 76.353 60 76.353H10C4.47715 76.353 0 71.8759 0 66.353V10.353Z" fill="#B3E3FF"/>
<path d="M21.6665 33.5528C21.6662 31.6199 22.443 29.7681 23.8223 28.4139C25.2015 27.0597 27.0673 26.317 28.9998 26.3528C31.2896 26.3406 33.4745 27.3117 34.9998 29.0195C36.5252 27.3117 38.7101 26.3406 40.9998 26.3528C42.9324 26.317 44.7982 27.0597 46.1774 28.4139C47.5567 29.7681 48.3335 31.6199 48.3332 33.5528C48.3332 40.6941 39.8278 46.0861 34.9998 50.3528C30.1825 46.0501 21.6665 40.6995 21.6665 33.5528Z" fill="#23A6F0"/>
</svg>
