<svg width="21" height="22" viewBox="0 0 21 22" fill="none" xmlns="http://www.w3.org/2000/svg">
<g clip-path="url(#clip0_2_184)">
<path d="M3.12496 18.6198H20.9836V21.1711H0.57373V0.76123H3.12496V18.6198ZM6.314 17.3442C6.05536 17.3447 5.7993 17.2928 5.5613 17.1916C5.32329 17.0904 5.10828 16.9419 4.92925 16.7553C4.75022 16.5686 4.61089 16.3476 4.51968 16.1056C4.42847 15.8636 4.38728 15.6056 4.39858 15.3472C4.40989 15.0888 4.47346 14.8354 4.58546 14.6022C4.69746 14.3691 4.85556 14.1611 5.05021 13.9908C5.24485 13.8205 5.47201 13.6914 5.71795 13.6113C5.96388 13.5313 6.2235 13.5019 6.4811 13.525L8.53739 10.0975C8.34937 9.8087 8.24281 9.47454 8.22896 9.13024C8.21512 8.78595 8.2945 8.4443 8.45873 8.14139C8.62296 7.83847 8.86594 7.58552 9.16202 7.40925C9.45809 7.23298 9.79627 7.13994 10.1408 7.13994C10.4854 7.13994 10.8236 7.23298 11.1197 7.40925C11.4157 7.58552 11.6587 7.83847 11.823 8.14139C11.9872 8.4443 12.0666 8.78595 12.0527 9.13024C12.0389 9.47454 11.9323 9.8087 11.7443 10.0975L13.8006 13.525C13.8981 13.5162 13.9963 13.5154 14.094 13.5225L17.4897 7.58067C17.2456 7.22322 17.13 6.79361 17.1616 6.36198C17.1933 5.93034 17.3703 5.52217 17.6638 5.20413C17.9574 4.88608 18.35 4.67694 18.7778 4.61085C19.2055 4.54476 19.643 4.62562 20.0188 4.84024C20.3946 5.05486 20.6866 5.39056 20.847 5.79252C21.0075 6.19448 21.0269 6.63895 20.9021 7.05338C20.7774 7.4678 20.5158 7.82769 20.1602 8.07429C19.8045 8.32088 19.3757 8.43961 18.9439 8.41109L15.5482 14.3529C15.7433 14.6391 15.8571 14.9728 15.8774 15.3185C15.8977 15.6643 15.8238 16.009 15.6636 16.3161C15.5034 16.6231 15.2628 16.8809 14.9676 17.0619C14.6723 17.243 14.3335 17.3405 13.9872 17.3441C13.6409 17.3477 13.3001 17.2573 13.0011 17.0824C12.7022 16.9076 12.4563 16.6548 12.2897 16.3512C12.1231 16.0476 12.0421 15.7044 12.0552 15.3583C12.0683 15.0122 12.1751 14.6762 12.3642 14.3861L10.3079 10.9585C10.1968 10.9688 10.0849 10.9688 9.97374 10.9585L7.91744 14.3861C8.10564 14.6748 8.21233 15.0091 8.22627 15.3535C8.2402 15.6978 8.16085 16.0396 7.9966 16.3426C7.83235 16.6456 7.5893 16.8987 7.29313 17.075C6.99696 17.2513 6.65867 17.3443 6.314 17.3442Z" fill="white"/>
</g>
<defs>
<clipPath id="clip0_2_184">
<rect width="20.4098" height="20.4098" fill="white" transform="translate(0.57373 0.76123)"/>
</clipPath>
</defs>
</svg>
