<svg width="140" height="40" viewBox="0 0 140 40" fill="none" xmlns="http://www.w3.org/2000/svg">
<g clip-path="url(#clip0_2_317)">
<path d="M0 20C0 8.95431 8.95431 0 20 0C31.0457 0 40 8.95431 40 20C40 31.0457 31.0457 40 20 40C8.95431 40 0 31.0457 0 20Z" fill="white"/>
<path d="M20.0011 15.9532L18.6367 14.5566L18.6362 14.556C18.2883 14.2018 17.8733 13.9204 17.4154 13.7283C16.9576 13.5362 16.466 13.4372 15.9695 13.4372C15.4729 13.4372 14.9814 13.5362 14.5235 13.7283C14.0657 13.9203 13.6508 14.2017 13.3029 14.5559C12.5889 15.2808 12.1887 16.2575 12.1887 17.275C12.1887 18.2926 12.589 19.2693 13.3031 19.9943L13.3034 19.9946L19.7784 26.5508L20.0007 26.776L20.2231 26.5508L26.6981 19.9946L26.6983 19.9943C27.4124 19.2693 27.8127 18.2926 27.8127 17.275C27.8127 16.2575 27.4125 15.2809 26.6986 14.5559C26.3509 14.2015 25.9359 13.92 25.4781 13.7279C25.0203 13.5359 24.5288 13.4372 24.0324 13.4375C24.0322 13.4375 24.0319 13.4375 24.0317 13.4375L24.032 13.75M20.0011 15.9532L21.3581 14.5695L21.3588 14.5687L21.582 14.7875M20.0011 15.9532L21.3572 14.5704M20.0011 15.9532L21.3572 14.5704M24.032 13.75C23.5748 13.7493 23.1222 13.8409 22.7013 14.0192C22.2803 14.1974 21.8996 14.4587 21.582 14.7875M24.032 13.75C24.487 13.7496 24.9376 13.8401 25.3572 14.0161C25.7768 14.1921 26.1571 14.4501 26.4757 14.775L24.032 13.75ZM21.582 14.7875L21.3572 14.5704M21.582 14.7875L21.3572 14.5704M24.0317 12.8125L24.0319 12.8125C24.6118 12.8127 25.1858 12.9283 25.7206 13.1526C26.2554 13.3769 26.7401 13.7054 27.1466 14.119C27.9755 14.9629 28.4399 16.0984 28.4399 17.2813C28.4399 18.4639 27.9756 19.5993 27.147 20.4431C27.1468 20.4432 27.1467 20.4434 27.1465 20.4435L20.0007 27.6802L12.8549 20.4435C12.8548 20.4434 12.8547 20.4433 12.8546 20.4432C12.0259 19.5994 11.5615 18.464 11.5615 17.2813C11.5615 16.0985 12.0259 14.9629 12.8548 14.1191C13.2613 13.7058 13.7461 13.3774 14.2809 13.1533C14.8156 12.9292 15.3896 12.8138 15.9695 12.8138C16.5493 12.8138 17.1233 12.9292 17.658 13.1533C18.1928 13.3774 18.6776 13.7058 19.0842 14.1191L19.085 14.12L19.7788 14.82L20.0007 15.0439L20.2227 14.82L20.9164 14.12L20.9176 14.1188C21.3236 13.7047 21.8082 13.3759 22.3429 13.1516C22.8777 12.9273 23.4518 12.812 24.0317 12.8125Z" fill="#BDBDBD" stroke="#252B42" stroke-width="0.625"/>
<path d="M50 20C50 8.95431 58.9543 0 70 0C81.0457 0 90 8.95431 90 20C90 31.0457 81.0457 40 70 40C58.9543 40 50 31.0457 50 20Z" fill="white"/>
<path d="M60 11.6333C60 11.4654 60.0667 11.3043 60.1855 11.1855C60.3043 11.0667 60.4654 11 60.6334 11H62.5334C62.6747 11 62.8119 11.0473 62.9232 11.1343C63.0345 11.2213 63.1136 11.343 63.1478 11.4801L63.6608 13.5333H78.3672C78.4602 13.5334 78.5521 13.554 78.6362 13.5936C78.7204 13.6331 78.7948 13.6908 78.8541 13.7624C78.9135 13.8339 78.9564 13.9177 78.9797 14.0077C79.0031 14.0977 79.0063 14.1918 78.9892 14.2832L77.0891 24.4165C77.062 24.5617 76.9849 24.6927 76.8714 24.7871C76.7578 24.8815 76.6148 24.9332 76.4672 24.9333H65.0668C64.9192 24.9332 64.7762 24.8815 64.6626 24.7871C64.5491 24.6927 64.472 24.5617 64.4449 24.4165L62.5461 14.3022L62.0394 12.2667H60.6334C60.4654 12.2667 60.3043 12.1999 60.1855 12.0812C60.0667 11.9624 60 11.8013 60 11.6333ZM63.9293 14.8L65.5925 23.6667H75.9415L77.6047 14.8H63.9293ZM66.3335 24.9333C65.6616 24.9333 65.0172 25.2002 64.5421 25.6753C64.067 26.1504 63.8001 26.7948 63.8001 27.4667C63.8001 28.1385 64.067 28.7829 64.5421 29.258C65.0172 29.7331 65.6616 30 66.3335 30C67.0054 30 67.6498 29.7331 68.1249 29.258C68.6 28.7829 68.8669 28.1385 68.8669 27.4667C68.8669 26.7948 68.6 26.1504 68.1249 25.6753C67.6498 25.2002 67.0054 24.9333 66.3335 24.9333ZM75.2005 24.9333C74.5286 24.9333 73.8842 25.2002 73.4091 25.6753C72.934 26.1504 72.6671 26.7948 72.6671 27.4667C72.6671 28.1385 72.934 28.7829 73.4091 29.258C73.8842 29.7331 74.5286 30 75.2005 30C75.8724 30 76.5168 29.7331 76.9919 29.258C77.467 28.7829 77.7339 28.1385 77.7339 27.4667C77.7339 26.7948 77.467 26.1504 76.9919 25.6753C76.5168 25.2002 75.8724 24.9333 75.2005 24.9333ZM66.3335 26.2C66.6695 26.2 66.9917 26.3335 67.2292 26.571C67.4668 26.8085 67.6002 27.1307 67.6002 27.4667C67.6002 27.8026 67.4668 28.1248 67.2292 28.3623C66.9917 28.5999 66.6695 28.7333 66.3335 28.7333C65.9976 28.7333 65.6754 28.5999 65.4378 28.3623C65.2003 28.1248 65.0668 27.8026 65.0668 27.4667C65.0668 27.1307 65.2003 26.8085 65.4378 26.571C65.6754 26.3335 65.9976 26.2 66.3335 26.2ZM75.2005 26.2C75.5364 26.2 75.8586 26.3335 76.0962 26.571C76.3337 26.8085 76.4672 27.1307 76.4672 27.4667C76.4672 27.8026 76.3337 28.1248 76.0962 28.3623C75.8586 28.5999 75.5364 28.7333 75.2005 28.7333C74.8645 28.7333 74.5423 28.5999 74.3048 28.3623C74.0672 28.1248 73.9338 27.8026 73.9338 27.4667C73.9338 27.1307 74.0672 26.8085 74.3048 26.571C74.5423 26.3335 74.8645 26.2 75.2005 26.2Z" fill="#252B42"/>
<path d="M100 20C100 8.95431 108.954 0 120 0C131.046 0 140 8.95431 140 20C140 31.0457 131.046 40 120 40C108.954 40 100 31.0457 100 20Z" fill="white"/>
<path d="M122.5 20C122.5 20.663 122.237 21.2989 121.768 21.7678C121.299 22.2366 120.663 22.5 120 22.5C119.337 22.5 118.701 22.2366 118.232 21.7678C117.763 21.2989 117.5 20.663 117.5 20C117.5 19.337 117.763 18.7011 118.232 18.2322C118.701 17.7634 119.337 17.5 120 17.5C120.663 17.5 121.299 17.7634 121.768 18.2322C122.237 18.7011 122.5 19.337 122.5 20Z" fill="black"/>
<path d="M112 20C112 20 115 14.5 120 14.5C125 14.5 128 20 128 20C128 20 125 25.5 120 25.5C115 25.5 112 20 112 20ZM120 23.5C120.928 23.5 121.818 23.1313 122.475 22.4749C123.131 21.8185 123.5 20.9283 123.5 20C123.5 19.0717 123.131 18.1815 122.475 17.5251C121.818 16.8687 120.928 16.5 120 16.5C119.072 16.5 118.182 16.8687 117.525 17.5251C116.869 18.1815 116.5 19.0717 116.5 20C116.5 20.9283 116.869 21.8185 117.525 22.4749C118.182 23.1313 119.072 23.5 120 23.5Z" fill="black"/>
</g>
<defs>
<clipPath id="clip0_2_317">
<rect width="140" height="40" fill="white"/>
</clipPath>
</defs>
</svg>
